<svg width="100" height="55" viewBox="0 0 100 55" fill="none" xmlns="http://www.w3.org/2000/svg">
<path d="M33.046 33.3635V27.1583H47.2875V39.8739C44.5613 41.7321 42.147 43.0003 40.0447 43.6785C37.9559 44.3431 35.4738 44.6754 32.5984 44.6754C29.0583 44.6754 26.1694 44.0718 23.9314 42.8647C21.707 41.6575 19.9777 39.8604 18.7434 37.4732C17.5227 35.0861 16.9124 32.3463 16.9124 29.2538C16.9124 25.9986 17.5837 23.1707 18.9265 20.7699C20.2693 18.3557 22.236 16.5246 24.8266 15.2768C26.8475 14.3138 29.567 13.8323 32.9849 13.8323C36.2808 13.8323 38.7426 14.1307 40.3702 14.7275C42.0114 15.3242 43.3677 16.2533 44.4392 17.5147C45.5243 18.7626 46.3381 20.3495 46.8806 22.2755L37.9898 23.8624C37.6236 22.7366 36.9997 21.8754 36.1181 21.2786C35.25 20.6818 34.1378 20.3834 32.7815 20.3834C30.7606 20.3834 29.1465 21.0887 27.9394 22.4993C26.7458 23.8963 26.149 26.1139 26.149 29.1521C26.149 32.3802 26.7526 34.686 27.9597 36.0694C29.1804 37.4529 30.8758 38.1446 33.046 38.1446C34.0768 38.1446 35.0601 37.9954 35.996 37.697C36.9319 37.3986 38.0034 36.89 39.2105 36.1711V33.3635H33.046Z" fill="white"/>
<path d="M51.6007 29.2742C51.6007 24.4049 52.957 20.614 55.6697 17.9013C58.3824 15.1886 62.1597 13.8323 67.0019 13.8323C71.9661 13.8323 75.7909 15.1683 78.4765 17.8403C81.162 20.4987 82.5048 24.2286 82.5048 29.03C82.5048 32.5158 81.9148 35.3777 80.7348 37.6156C79.5683 39.84 77.8729 41.5761 75.6485 42.824C73.4377 44.0582 70.6775 44.6754 67.3681 44.6754C64.0044 44.6754 61.2171 44.1396 59.0063 43.0681C56.809 41.9966 55.0254 40.3012 53.6555 37.9819C52.2856 35.6625 51.6007 32.76 51.6007 29.2742ZM60.817 29.3149C60.817 32.3259 61.3731 34.4893 62.4853 35.8049C63.611 37.1206 65.1369 37.7784 67.0629 37.7784C69.0432 37.7784 70.5758 37.1341 71.6609 35.8456C72.746 34.5571 73.2885 32.2445 73.2885 28.908C73.2885 26.1003 72.7188 24.0523 71.5795 22.7638C70.4537 21.4617 68.9211 20.8106 66.9815 20.8106C65.1233 20.8106 63.6314 21.4685 62.5056 22.7841C61.3799 24.0997 60.817 26.2767 60.817 29.3149Z" fill="white"/>
<path d="M0 28.3333H0.833333V54.9999H0V28.3333Z" fill="#CD06FF"/>
<path d="M0 54.9999V54.1666H42.5V54.9999H0Z" fill="#CD06FF"/>
<path d="M100 26.6667H99.1667V8.2016e-05H100V26.6667Z" fill="#CD06FF"/>
<path d="M100 8.2016e-05V0.833416H57.5V8.2016e-05H100Z" fill="#CD06FF"/>
</svg>
